<svg xmlns="http://www.w3.org/2000/svg" viewBox="88 150 450 110" shape-rendering="geometricPrecision" version="1.1">
  <defs>
    <linearGradient id="brandGradient" x1="0" y1="156" x2="0" y2="252" gradientUnits="userSpaceOnUse">
      <stop offset="0%" style="stop-color:#00f2ff; stop-opacity:1" /> 
      <stop offset="100%" style="stop-color:#0ea5e9; stop-opacity:1" />
    </linearGradient>
  </defs>

  <path d="M 464.500 169.254 C 460.650 176.539, 457.226 183.703, 456.892 185.174 L 456.284 187.847 463.144 188.174 C 466.917 188.353, 470.003 188.162, 470.002 187.750 C 470.001 187.338, 470.881 186.119, 471.959 185.041 C 473.036 183.964, 474.918 181.152, 476.142 178.791 L 478.366 174.500 479.327 178.500 C 479.856 180.700, 480.561 182.725, 480.894 183 C 481.227 183.275, 481.500 184.175, 481.500 185 C 481.500 186.172, 482.961 186.526, 488.183 186.617 C 491.859 186.682, 495.521 186.986, 496.323 187.294 C 498.488 188.124, 498.167 184.434, 494.754 169.250 L 491.776 156 481.638 156.004 L 471.500 156.009 464.500 169.254 M 517.637 157.750 C 516.706 161.027, 514.258 180.488, 514.379 183.655 C 514.446 185.405, 514.930 186.543, 515.467 186.212 C 515.998 185.883, 520.048 185.511, 524.467 185.384 C 531.164 185.192, 532.451 184.892, 532.206 183.577 C 532.045 182.710, 532.321 182, 532.820 182 C 533.511 182, 537.017 160.840, 537.003 156.750 C 537.001 156.338, 532.755 156, 527.567 156 C 519.440 156, 518.066 156.242, 517.637 157.750" 
        fill="url(#brandGradient)" stroke="#0b0f1a" stroke-width="2.0" />

  <path d="M 97.305 163.204 C 96.218 164.591, 94.027 180.731, 94.322 185.172 C 94.488 187.660, 94.861 187.866, 99.751 188.172 C 103.461 188.404, 105.002 188.133, 105.001 187.250 C 105.001 186.563, 105.379 186, 105.842 186 C 106.306 186, 107.093 182.963, 107.592 179.250 L 108.500 172.500 118.642 172.216 C 129.638 171.909, 129.947 171.719, 129.986 165.250 C 130 163.020, 129.871 163, 115.582 163 C 107.652 163, 100.524 162.755, 99.742 162.454 C 98.960 162.154, 97.863 162.492, 97.305 163.204 M 207.089 163 C 206.177 163.643, 202.379 186.012, 202.805 188.227 C 203.066 189.580, 203.609 189.719, 205.633 188.949 C 207.011 188.425, 209.233 188.271, 210.569 188.607 C 212.709 189.144, 213.008 188.875, 213.070 186.358 C 213.109 184.786, 213.496 182.600, 213.931 181.500 C 214.572 179.877, 214.859 180.302, 215.449 183.754 C 215.850 186.094, 216.587 187.755, 217.089 187.445 C 217.590 187.135, 218 187.674, 218 188.641 C 218 190.009, 218.267 190.133, 219.200 189.200 C 219.860 188.540, 222.335 188, 224.700 188 C 227.487 188, 228.991 187.560, 228.974 186.750 C 228.960 186.063, 227.696 180.550, 226.166 174.500 L 223.383 163.500 215.591 163 C 211.305 162.725, 207.479 162.725, 207.089 163 M 334.843 163.095 C 334.314 163.423, 333.421 166.798, 332.857 170.595 L 331.833 177.500 325.166 177.534 C 317.334 177.573, 312.842 179.572, 309.960 184.299 C 308.886 186.059, 308.006 187.766, 308.004 188.091 C 308.002 188.417, 310.315 188.765, 313.145 188.865 C 316.737 188.992, 318.844 188.546, 320.125 187.387 C 322.645 185.106, 328.962 184.655, 331.113 186.602 C 333.617 188.869, 342.629 188.010, 342.183 185.548 C 342.009 184.586, 342.264 184.045, 342.751 184.346 C 343.718 184.944, 346.561 164.228, 345.639 163.306 C 344.864 162.530, 336.032 162.358, 334.843 163.095 M 247.256 164.250 C 245.300 166.721, 236.219 184.554, 235.648 187.045 C 235.097 189.449, 235.259 189.568, 238.554 189.183 C 240.473 188.959, 242.637 187.929, 243.361 186.894 C 244.086 185.859, 244.977 185.310, 245.340 185.673 C 245.703 186.036, 246 185.894, 246 185.358 C 246 184.821, 246.622 183.532, 247.382 182.493 C 248.640 180.772, 248.752 180.952, 248.632 184.501 L 248.500 188.398 254 188.257 C 257.025 188.180, 259.890 188.091, 260.367 188.058 C 260.843 188.026, 261.016 186.864, 260.751 185.476 C 260.485 184.088, 260.599 182.748, 261.002 182.499 C 261.406 182.249, 262.039 179.222, 262.408 175.772 C 262.778 172.323, 263.337 168.037, 263.651 166.250 L 264.223 163 256.234 163 C 251.037 163, 247.899 163.437, 247.256 164.250 M 381.989 164.250 C 381.983 164.938, 381.699 167.188, 381.358 169.250 L 380.738 173 387.369 173 C 393.186 173, 394 172.770, 394 171.125 C 394 170.094, 394.281 167.844, 394.625 166.125 L 395.250 163 388.625 163 C 383.998 163, 381.997 163.377, 381.989 164.250 M 140.558 178.431 C 135.155 180.439, 132.049 182.947, 130.562 186.500 L 129.307 189.500 134.616 189.570 C 138.264 189.618, 140.090 189.207, 140.455 188.256 C 140.747 187.496, 141.439 187.153, 141.993 187.496 C 142.547 187.838, 143 187.529, 143.001 186.809 C 143.001 186.089, 144.239 185.406, 145.751 185.290 C 149.108 185.034, 154.179 186.901, 153.428 188.116 C 153.128 188.602, 153.246 189.032, 153.691 189.070 C 165.421 190.086, 166.845 189.535, 164.451 184.906 C 161.171 178.563, 149.044 175.277, 140.558 178.431 M 191.500 178.552 C 189.850 179.422, 187.488 181.081, 186.250 182.241 L 184 184.349 184 181.174 L 184 178 178.519 178 C 173.659 178, 172.978 178.255, 172.506 180.250 C 172.213 181.488, 172.330 183.777, 172.765 185.338 C 173.549 188.148, 173.634 188.176, 181.529 188.203 C 185.913 188.218, 191.412 187.894, 193.750 187.483 C 197.718 186.786, 198.010 186.513, 198.150 183.368 C 198.233 181.516, 198.345 179.438, 198.400 178.750 C 198.550 176.871, 194.889 176.766, 191.500 178.552 M 278.655 178.459 C 274.309 180.008, 270.420 183.285, 269.712 185.994 C 269.311 187.528, 269.970 187.879, 273.868 188.208 C 277.270 188.495, 278.806 188.179, 279.653 187.019 C 281.056 185.097, 286.314 184.562, 289.109 186.058 C 290.234 186.661, 293.370 187.728, 296.077 188.430 L 301 189.707 301 186.808 C 301 179.378, 288.831 174.831, 278.655 178.459 M 367.644 180.011 C 364.746 181.849, 363.171 183.468, 363.602 184.166 C 364.043 184.879, 363.865 185.035, 363.128 184.579 C 362.479 184.178, 362.072 182.646, 362.224 181.175 C 362.487 178.624, 362.265 178.486, 357.443 178.204 C 353.012 177.945, 352.232 178.198, 351.138 180.243 C 350.229 181.941, 350.169 183.315, 350.920 185.288 C 351.831 187.686, 352.475 188, 356.475 188 C 359.420 188, 361.005 187.564, 361.015 186.750 C 361.026 185.857, 361.284 185.899, 361.915 186.897 C 362.572 187.935, 363.791 188.097, 366.650 187.529 C 368.767 187.108, 371.701 186.796, 373.170 186.835 C 375.514 186.898, 375.921 186.429, 376.502 182.990 C 377.669 176.080, 375.168 175.239, 367.644 180.011 M 380.667 178.667 C 380.300 179.033, 380 181.524, 380 184.202 C 380 188.650, 380.162 188.984, 381.872 188.068 C 383.012 187.459, 384.917 187.403, 386.738 187.925 C 390.767 189.080, 391.582 188.325, 392.327 182.750 L 392.962 178 387.148 178 C 383.950 178, 381.033 178.300, 380.667 178.667 M 397 179.132 C 397 182.057, 404.469 191.668, 405.476 190.039 C 405.778 189.551, 407.819 189.279, 410.013 189.435 C 412.207 189.592, 414.714 189.198, 415.586 188.561 C 417.011 187.519, 416.941 186.933, 414.886 182.701 L 412.601 178 404.801 178 C 399.661 178, 397 178.386, 397 179.132 M 423.214 182.182 C 421.446 184.482, 420 186.907, 420 187.571 C 420 188.235, 419.351 188.715, 418.559 188.639 C 417.766 188.563, 417.102 188.944, 417.083 189.487 C 417.065 190.029, 418.501 190.302, 420.275 190.093 C 422.049 189.884, 424.290 189.636, 425.257 189.541 C 427.237 189.348, 438 180.397, 438 178.942 C 438 178.424, 435.396 178, 432.214 178 C 426.601 178, 426.332 178.125, 423.214 182.182 M 106.253 188 C 106.552 189.109, 108.659 189.630, 114.331 190 C 119.227 190.319, 121.875 190.138, 121.647 189.500 C 121.444 188.933, 118.323 188.601, 114.444 188.734 C 109.917 188.888, 107.302 188.550, 106.723 187.734 C 106.084 186.834, 105.957 186.906, 106.253 188 M 127.997 234.750 C 127.995 235.162, 125.108 235.569, 121.581 235.653 C 118.054 235.737, 114.343 236.304, 113.334 236.914 C 111.946 237.752, 113.688 237.878, 120.500 237.432 C 125.450 237.107, 130.175 236.590, 131 236.283 C 131.825 235.975, 134.075 235.756, 136 235.796 L 139.500 235.868 135.500 234.992 C 130.413 233.877, 128.001 233.799, 127.997 234.750 M 111 245.299 C 111 246.213, 112.114 246.467, 114.750 246.156 C 117.807 245.795, 118.131 245.568, 116.500 244.927 C 113.398 243.707, 111 243.870, 111 245.299 M 101 245.721 C 96.539 246.521, 96.069 248.327, 100.500 247.641 C 102.700 247.301, 105.539 247.017, 106.809 247.011 C 108.092 247.005, 108.843 246.555, 108.500 246 C 107.875 244.989, 105.561 244.903, 101 245.721" 
        fill="url(#brandGradient)" stroke="none" />

  <path d="M 513.534 184.250 C 512.952 186.849, 510.733 200.692, 508.929 212.980 C 507.447 223.074, 507.437 223.056, 502.472 201.500 C 500.445 192.700, 498.334 185.050, 497.781 184.500 C 497.107 183.830, 497.013 184.284, 497.495 185.875 C 497.994 187.525, 497.870 188.038, 497.086 187.553 C 496.466 187.170, 492.593 186.776, 488.481 186.678 L 481.003 186.500 481.633 190 C 481.980 191.925, 482.636 194.225, 483.092 195.110 C 483.817 196.518, 482.921 196.744, 475.960 196.912 C 470.785 197.037, 468 196.724, 468 196.019 C 468 195.422, 469.155 192.654, 470.567 189.867 C 471.979 187.081, 472.896 184.563, 472.605 184.271 C 472.313 183.980, 471.588 184.812, 470.994 186.121 C 469.984 188.342, 469.458 188.478, 463.070 188.172 C 456.647 187.865, 456.256 187.712, 456.684 185.672 C 456.935 184.478, 455.646 186.200, 453.820 189.500 C 450.504 195.493, 450.494 195.501, 445 196.151 C 441.975 196.509, 437.025 196.892, 434 197.001 C 426.008 197.289, 431.339 198.771, 440.833 198.900 C 446.220 198.974, 448.057 199.332, 447.754 200.250 C 447.488 201.055, 444.876 201.591, 440.420 201.754 C 429.379 202.160, 427.250 203.293, 436.214 203.993 C 440.457 204.324, 444.219 204.886, 444.575 205.242 C 444.931 205.598, 443.147 209.696, 440.611 214.348 C 438.075 219.001, 436 223.594, 436 224.554 C 436 226.152, 435.006 226.246, 424.250 225.665 C 417.788 225.316, 382.350 224.738, 345.500 224.381 C 279.859 223.745, 230.287 224.705, 204 227.121 C 198.225 227.652, 189.373 228.275, 184.330 228.505 C 179.286 228.735, 171.186 229.425, 166.330 230.038 C 152.167 231.825, 145.380 232.613, 138.188 233.307 C 135.817 233.536, 133.477 234.123, 132.988 234.612 C 131.583 236.016, 143.738 235.576, 188.500 232.600 C 241.257 229.092, 251.481 228.755, 334 227.810 C 345.825 227.674, 362.700 227.742, 371.500 227.959 C 380.300 228.177, 362.525 228.678, 332 229.074 C 250.702 230.128, 165.673 235.294, 134 241.105 C 128.576 242.100, 125.655 242.537, 119.229 243.313 C 117.431 243.530, 115.722 243.944, 115.433 244.234 C 114.321 245.346, 119.828 245.910, 122.977 245.007 C 124.797 244.485, 126.666 244.294, 127.132 244.582 C 127.599 244.870, 133.272 244.648, 139.740 244.089 C 153.253 242.920, 175.721 241.891, 172 242.611 C 170.625 242.877, 162.300 244.447, 153.500 246.099 C 133.381 249.877, 129.774 250.826, 130.579 252.128 C 130.931 252.697, 132.223 252.910, 133.451 252.602 C 140.207 250.906, 194.730 243.953, 224 241.054 C 278.525 235.654, 377.481 231.077, 442 230.972 C 465.485 230.934, 468.216 230.767, 466 229.500 C 463.743 228.210, 465.008 228.052, 479 227.874 C 494.218 227.680, 494.327 227.663, 485 226.950 C 479.775 226.551, 466.725 226.081, 456 225.906 C 445.275 225.732, 440.475 225.438, 445.333 225.254 L 454.166 224.920 458.075 216.460 L 461.983 208 473.023 208 C 485.521 208, 484.631 207.375, 486.425 217.409 L 487.514 223.500 507.757 223.771 C 523.601 223.983, 528.001 223.765, 528.005 222.771 C 528.008 222.072, 529.133 213.683, 530.505 204.130 C 531.877 194.576, 533 186.396, 533 185.952 C 533 185.009, 516.926 185.310, 515.353 186.282 C 514.670 186.704, 514.458 186.054, 514.761 184.470 C 515.351 181.382, 514.222 181.180, 513.534 184.250 M 93.548 185.250 C 93.333 185.938, 92.420 192.125, 91.519 199 C 90.617 205.875, 89.631 212.963, 89.328 214.750 L 88.777 218 95.370 218 C 101.398 218, 102.003 217.808, 102.437 215.750 C 103.305 211.643, 104.873 197.604, 104.526 197.047 C 104.338 196.746, 108.131 196.643, 112.954 196.817 L 121.723 197.135 122.362 193.942 C 123.246 189.520, 123.162 188, 122.031 188 C 121.499 188, 121.280 188.563, 121.545 189.250 C 121.911 190.199, 120.206 190.420, 114.451 190.169 C 107.777 189.877, 106.771 189.580, 106.001 187.669 C 105.482 186.382, 105.102 186.110, 105.065 187 C 105.016 188.184, 103.867 188.429, 99.617 188.164 C 94.882 187.869, 94.293 187.597, 94.733 185.914 C 95.278 183.828, 94.182 183.214, 93.548 185.250 M 171.653 187 C 170.556 192.975, 168 212.939, 168 215.534 C 168 217.881, 168.289 218, 174 218 C 177.300 218, 180 217.583, 180 217.072 C 180 214.348, 182.234 200.065, 183.077 197.397 C 184.445 193.071, 187.959 190.089, 193.647 188.429 L 198.500 187.012 194 187.621 C 191.525 187.956, 185.903 188.217, 181.507 188.202 C 173.980 188.176, 173.478 188.038, 172.905 185.837 C 172.363 183.756, 172.226 183.884, 171.653 187 M 307.679 186.368 C 304.567 191.116, 302.708 198.878, 303.302 204.635 C 304.277 214.081, 308.601 218.286, 317.341 218.286 C 320.232 218.286, 323.617 217.740, 324.863 217.073 C 326.550 216.171, 327.475 216.149, 328.486 216.989 C 329.233 217.609, 332.011 217.977, 334.659 217.808 L 339.474 217.500 341.176 204 C 342.111 196.575, 342.905 189.792, 342.939 188.927 C 342.988 187.664, 341.868 187.369, 337.250 187.427 C 334.087 187.467, 331.203 187.911, 330.840 188.414 C 330.476 188.917, 329.866 192.967, 329.483 197.414 C 328.708 206.412, 327.242 209, 322.916 209 C 318.743 209, 317 206.612, 317 200.896 C 317 195.461, 318.768 190.265, 321.345 188.128 C 322.255 187.373, 323 186.282, 323 185.703 C 323 185.125, 321.947 185.641, 320.660 186.850 C 318.801 188.596, 317.259 189.011, 313.160 188.865 C 307.499 188.665, 307.553 188.703, 309.035 185.934 C 310.489 183.219, 309.544 183.520, 307.679 186.368 M 350.063 184.115 C 350.029 184.454, 349.100 191.377, 348 199.500 C 345.236 219.908, 344.832 218.151, 352.211 217.798 L 358.423 217.500 359.630 207.858 C 360.294 202.554, 361.579 196.781, 362.485 195.029 C 364.138 191.832, 370.425 188.132, 374.500 187.959 C 376.335 187.880, 376.313 187.798, 374.240 186.965 C 372.854 186.408, 370.992 186.433, 369.425 187.029 C 365.888 188.373, 362.265 188.243, 361.662 186.750 C 361.259 185.750, 361.142 185.750, 361.079 186.750 C 361.028 187.555, 359.385 188, 356.468 188 C 352.702 188, 351.783 187.619, 351.031 185.750 C 350.534 184.512, 350.098 183.777, 350.063 184.115 M 127.911 189.683 C 124.636 196.449, 124.213 204.536, 126.861 209.728 C 129.914 215.712, 134.544 218.184, 142.773 218.224 C 155.308 218.286, 163.550 211.858, 166.084 200.045 C 167.180 194.932, 166.492 186.585, 165.153 188.752 C 164.734 189.430, 162.305 189.722, 158.941 189.498 L 153.417 189.130 153.815 192.538 C 154.391 197.477, 152.197 205.496, 149.460 208.448 C 146.763 211.359, 141.970 211.873, 139.972 209.467 C 138.006 207.097, 137.628 199.012, 139.273 194.500 C 142.390 185.947, 142.293 186.351, 140.832 188.030 C 139.956 189.036, 137.730 189.559, 134.335 189.556 C 129.609 189.551, 129.255 189.393, 130.166 187.690 C 130.714 186.666, 130.952 185.619, 130.695 185.362 C 130.439 185.106, 129.186 187.050, 127.911 189.683 M 243.311 186.873 C 242.624 187.974, 240.637 188.940, 238.561 189.183 C 235.368 189.555, 235.049 189.383, 235.528 187.550 C 235.823 186.422, 235.139 187.188, 234.008 189.250 C 231.633 193.582, 230 194.091, 230 190.500 C 230 188.171, 229.663 188, 225.059 188 C 222.333 188, 219.790 188.531, 219.387 189.184 C 218.884 189.997, 218.418 189.763, 217.898 188.434 C 216.080 183.792, 217.291 191.966, 219.833 201.500 L 222.500 211.500 227.143 211.800 L 231.786 212.101 238.422 199.387 C 242.072 192.395, 244.931 186.293, 244.776 185.827 C 244.620 185.361, 243.961 185.832, 243.311 186.873 M 266.728 189.750 C 263.673 196.470, 263.690 206.197, 266.766 211.144 C 268.012 213.147, 270.708 215.583, 272.757 216.555 C 277.485 218.798, 289.009 218.859, 294.254 216.667 C 297.614 215.263, 298 214.725, 298 211.444 C 298 208.674, 297.651 207.920, 296.563 208.338 C 285.440 212.606, 278.923 210.865, 277.393 203.216 L 276.763 200.063 289.131 199.782 L 301.500 199.500 301.662 193 C 301.750 189.425, 301.619 187.217, 301.369 188.092 C 300.964 189.508, 300.345 189.537, 295.780 188.353 C 290.601 187.009, 288.314 187.333, 291.029 189.026 C 292.166 189.735, 292.248 190.347, 291.389 191.722 C 290.523 193.107, 288.824 193.530, 283.699 193.634 L 277.122 193.767 279.561 189.904 C 282.367 185.458, 282.740 183.545, 280.217 186.534 C 278.834 188.173, 277.590 188.495, 273.818 188.189 C 270.303 187.904, 269.270 187.459, 269.675 186.405 C 269.971 185.632, 269.916 185, 269.551 185 C 269.186 185, 267.916 187.137, 266.728 189.750 M 377.650 199 C 376.640 206.975, 375.582 214.512, 375.299 215.750 C 374.804 217.908, 375.052 218, 381.392 218 C 387.001 218, 388.007 217.735, 388.046 216.250 C 388.072 215.287, 388.884 208.529, 389.850 201.232 C 390.999 192.562, 391.242 188.090, 390.554 188.328 C 389.974 188.528, 388.205 188.326, 386.622 187.879 C 384.971 187.413, 382.976 187.477, 381.942 188.031 C 380.477 188.815, 380.077 188.575, 379.812 186.748 C 379.632 185.512, 378.659 191.025, 377.650 199 M 428.745 187.683 C 427.820 188.609, 426.261 189.444, 425.281 189.540 C 424.301 189.635, 421.925 189.552, 410 189.447 C 408.075 189.342, 405.990 189.660, 405.367 190.154 C 404.636 190.733, 404.006 190.459, 403.593 189.382 C 403.241 188.465, 402.706 187.961, 402.404 188.262 C 402.103 188.564, 403.013 190.645, 404.428 192.886 C 405.843 195.127, 406.996 197.532, 406.991 198.230 C 406.986 198.929, 403.386 203.397, 398.991 208.160 C 394.596 212.923, 391 217.086, 391 217.410 C 391 217.735, 393.664 218, 396.920 218 L 402.841 218 407.646 212.224 L 412.452 206.449 415.184 212.224 L 417.915 218 425.458 218 C 430.179 218, 433 217.597, 433 216.923 C 433 216.331, 430.454 211.579, 427.342 206.365 L 421.684 196.883 427.058 191.442 C 430.013 188.449, 431.981 186, 431.430 186 C 430.879 186, 429.671 186.757, 428.745 187.683 M 200.211 200.500 C 197.196 219.313, 196.964 218, 203.305 218 L 208.611 218 210.604 203.750 C 212.589 189.553, 212.589 189.497, 210.617 188.715 C 209.529 188.284, 207.396 188.363, 205.878 188.893 C 203.614 189.682, 203.059 189.553, 202.787 188.177 C 202.604 187.255, 201.445 192.800, 200.211 200.500 M 247.966 188.445 C 247.530 189.150, 244.538 217.204, 244.864 217.530 C 245.673 218.340, 257 218.041, 257 217.210 C 257 216.212, 259.867 194.411, 260.468 190.832 L 260.917 188.165 254.459 188.278 C 250.906 188.340, 247.985 188.415, 247.966 188.445 M 426.797 228.745 C 431.361 228.930, 438.561 228.929, 442.797 228.742 C 447.034 228.555, 443.300 228.404, 434.500 228.405 C 425.700 228.406, 422.234 228.559, 426.797 228.745 M 121 253.066 C 115.059 254.777, 114.887 254.898, 119 254.476 C 126.122 253.744, 127.360 253.419, 127.776 252.171 C 127.991 251.527, 128.017 251.044, 127.833 251.097 C 127.650 251.150, 124.575 252.036, 121 253.066" 
        fill="url(#brandGradient)" stroke="none" />
</svg>
